<svg width="187" height="43" viewBox="0 0 187 43" fill="none" xmlns="http://www.w3.org/2000/svg">
<path d="M0.712831 19L3.04983 5.7H7.97083C8.8955 5.7 9.66183 5.86467 10.2698 6.194C10.8778 6.51067 11.3275 6.935 11.6188 7.467C11.9102 7.999 12.0558 8.58167 12.0558 9.215C12.0558 10.1777 11.8215 11.0073 11.3528 11.704C10.8842 12.388 10.2318 12.92 9.39583 13.3C8.5725 13.6673 7.6225 13.851 6.54583 13.851H4.05683L3.14483 19H0.712831ZM4.39883 11.875H6.73583C7.6225 11.875 8.31283 11.666 8.80683 11.248C9.30083 10.8173 9.54783 10.203 9.54783 9.405C9.54783 8.88567 9.38316 8.46767 9.05383 8.151C8.7245 7.83433 8.19883 7.676 7.47683 7.676H5.13983L4.39883 11.875ZM20.9351 19.228C19.9597 19.228 19.0794 19.038 18.2941 18.658C17.5087 18.2653 16.8817 17.6763 16.4131 16.891C15.9571 16.1057 15.7291 15.1113 15.7291 13.908V5.7H18.1611V13.927C18.1611 14.9657 18.4081 15.7383 18.9021 16.245C19.4087 16.7517 20.1054 17.005 20.9921 17.005C21.8661 17.005 22.5564 16.7517 23.0631 16.245C23.5697 15.7383 23.8231 14.9657 23.8231 13.927V5.7H26.2551V13.908C26.2551 15.1113 26.0144 16.1057 25.5331 16.891C25.0517 17.6763 24.4057 18.2653 23.5951 18.658C22.7971 19.038 21.9104 19.228 20.9351 19.228ZM31.3977 19V5.7H36.2807C37.3447 5.7 38.2187 5.88367 38.9027 6.251C39.5993 6.60567 40.1187 7.09333 40.4607 7.714C40.8027 8.322 40.9737 8.99967 40.9737 9.747C40.9737 10.5577 40.7583 11.2987 40.3277 11.97C39.9097 12.6413 39.251 13.129 38.3517 13.433L41.1067 19H38.3137L35.8437 13.756H33.8297V19H31.3977ZM33.8297 11.97H36.1287C36.9393 11.97 37.5347 11.7737 37.9147 11.381C38.2947 10.9883 38.4847 10.469 38.4847 9.823C38.4847 9.18967 38.2947 8.683 37.9147 8.303C37.5473 7.923 36.9457 7.733 36.1097 7.733H33.8297V11.97ZM45.8956 19V5.7H54.5786V7.657H48.3276V11.305H54.0086V13.205H48.3276V17.043H54.5786V19H45.8956ZM65.9103 19L68.2473 5.7H72.7883C74.7896 5.7 76.259 6.18767 77.1963 7.163C78.1336 8.13833 78.6023 9.45567 78.6023 11.115C78.6023 12.6603 78.2603 14.0283 77.5763 15.219C76.905 16.4097 75.9613 17.3407 74.7453 18.012C73.5293 18.6707 72.098 19 70.4513 19H65.9103ZM68.7033 16.91H70.6983C71.851 16.91 72.8263 16.682 73.6243 16.226C74.435 15.77 75.0493 15.124 75.4673 14.288C75.8853 13.452 76.0943 12.464 76.0943 11.324C76.0943 10.1333 75.7903 9.24667 75.1823 8.664C74.5743 8.06867 73.618 7.771 72.3133 7.771H70.3183L68.7033 16.91ZM82.9879 19V5.7H85.4199V19H82.9879ZM94.5146 19L89.6506 5.7H92.2536L96.0156 16.511L99.7966 5.7H102.362L97.4976 19H94.5146ZM106.603 19V5.7H109.035V19H106.603ZM114.273 19V5.7H116.705V17.1H122.595V19H114.273ZM127.397 19V5.7H130.285L134.522 14.136L138.702 5.7H141.59V19H139.158V9.823L135.453 17.1H133.534L129.829 9.823V19H127.397ZM146.831 19V5.7H155.514V7.657H149.263V11.305H154.944V13.205H149.263V17.043H155.514V19H146.831ZM160.475 19V5.7H162.907L169.158 15.067V5.7H171.59V19H169.158L162.907 9.652V19H160.475ZM179.926 19V7.657H176.05V5.7H186.253V7.657H182.358V19H179.926Z" fill="black"/>
<path d="M44.1653 39V29.2H47.3853C48.1506 29.2 48.7806 29.326 49.2753 29.578C49.7699 29.83 50.1339 30.1707 50.3673 30.6C50.6099 31.0293 50.7313 31.5147 50.7313 32.056C50.7313 32.588 50.6146 33.0687 50.3813 33.498C50.1479 33.9273 49.7839 34.2727 49.2893 34.534C48.7946 34.786 48.1599 34.912 47.3853 34.912H45.3413V39H44.1653ZM45.3413 33.918H47.3573C48.1413 33.918 48.6966 33.7547 49.0233 33.428C49.3593 33.092 49.5273 32.6347 49.5273 32.056C49.5273 31.468 49.3593 31.0107 49.0233 30.684C48.6966 30.348 48.1413 30.18 47.3573 30.18H45.3413V33.918ZM57.7327 39V29.2H58.9087V39H57.7327ZM70.7446 39.168C69.7833 39.168 68.9526 38.958 68.2526 38.538C67.5619 38.1087 67.0253 37.516 66.6426 36.76C66.2599 35.9947 66.0686 35.108 66.0686 34.1C66.0686 33.1013 66.2599 32.224 66.6426 31.468C67.0253 30.7027 67.5619 30.1053 68.2526 29.676C68.9526 29.2467 69.7833 29.032 70.7446 29.032C71.8646 29.032 72.7746 29.3027 73.4746 29.844C74.1839 30.376 74.6366 31.1227 74.8326 32.084H73.5306C73.3813 31.4773 73.0733 30.992 72.6066 30.628C72.1493 30.2547 71.5286 30.068 70.7446 30.068C70.0446 30.068 69.4333 30.2313 68.9106 30.558C68.3879 30.8753 67.9819 31.3373 67.6926 31.944C67.4126 32.5413 67.2726 33.26 67.2726 34.1C67.2726 34.94 67.4126 35.6633 67.6926 36.27C67.9819 36.8673 68.3879 37.3293 68.9106 37.656C69.4333 37.9733 70.0446 38.132 70.7446 38.132C71.5286 38.132 72.1493 37.9547 72.6066 37.6C73.0733 37.236 73.3813 36.7553 73.5306 36.158H74.8326C74.6366 37.1007 74.1839 37.838 73.4746 38.37C72.7746 38.902 71.8646 39.168 70.7446 39.168ZM84.0463 39V30.166H81.1203V29.2H88.1483V30.166H85.2223V39H84.0463ZM98.5863 39.168C97.9143 39.168 97.303 39.0373 96.7523 38.776C96.211 38.5053 95.777 38.09 95.4503 37.53C95.1237 36.97 94.9603 36.256 94.9603 35.388V29.2H96.1363V35.402C96.1363 36.354 96.365 37.0447 96.8223 37.474C97.2797 37.9033 97.877 38.118 98.6143 38.118C99.3517 38.118 99.9443 37.9033 100.392 37.474C100.84 37.0447 101.064 36.354 101.064 35.402V29.2H102.24V35.388C102.24 36.256 102.077 36.97 101.75 37.53C101.424 38.09 100.985 38.5053 100.434 38.776C99.8837 39.0373 99.2677 39.168 98.5863 39.168ZM109.692 39V29.2H112.856C113.621 29.2 114.246 29.326 114.732 29.578C115.217 29.83 115.576 30.1753 115.81 30.614C116.043 31.0527 116.16 31.538 116.16 32.07C116.16 32.686 115.992 33.2413 115.656 33.736C115.329 34.2307 114.816 34.5807 114.116 34.786L116.258 39H114.872L112.884 34.954H112.8H110.868V39H109.692ZM110.868 34.03H112.772C113.528 34.03 114.078 33.848 114.424 33.484C114.769 33.12 114.942 32.6533 114.942 32.084C114.942 31.5053 114.769 31.048 114.424 30.712C114.088 30.3667 113.532 30.194 112.758 30.194H110.868V34.03ZM123.451 39V29.2H129.513V30.166H124.627V33.582H129.093V34.534H124.627V38.034H129.513V39H123.451ZM139.935 39.168C139.216 39.168 138.591 39.0373 138.059 38.776C137.527 38.5147 137.116 38.1507 136.827 37.684C136.538 37.2173 136.393 36.676 136.393 36.06H137.625C137.625 36.4427 137.714 36.7973 137.891 37.124C138.068 37.4413 138.325 37.698 138.661 37.894C139.006 38.0807 139.431 38.174 139.935 38.174C140.598 38.174 141.111 38.0153 141.475 37.698C141.839 37.3807 142.021 36.984 142.021 36.508C142.021 36.116 141.937 35.8033 141.769 35.57C141.601 35.3273 141.372 35.1313 141.083 34.982C140.803 34.8327 140.476 34.702 140.103 34.59C139.739 34.478 139.356 34.352 138.955 34.212C138.199 33.9507 137.639 33.6287 137.275 33.246C136.911 32.854 136.729 32.3453 136.729 31.72C136.72 31.1973 136.841 30.7353 137.093 30.334C137.345 29.9233 137.7 29.606 138.157 29.382C138.624 29.1487 139.174 29.032 139.809 29.032C140.434 29.032 140.976 29.1487 141.433 29.382C141.9 29.6153 142.259 29.9373 142.511 30.348C142.772 30.7587 142.908 31.2253 142.917 31.748H141.685C141.685 31.4773 141.615 31.2113 141.475 30.95C141.335 30.6793 141.12 30.46 140.831 30.292C140.551 30.124 140.196 30.04 139.767 30.04C139.235 30.0307 138.796 30.166 138.451 30.446C138.115 30.726 137.947 31.1133 137.947 31.608C137.947 32.028 138.064 32.35 138.297 32.574C138.54 32.798 138.876 32.9847 139.305 33.134C139.734 33.274 140.229 33.4373 140.789 33.624C141.256 33.792 141.676 33.988 142.049 34.212C142.422 34.436 142.712 34.7253 142.917 35.08C143.132 35.4347 143.239 35.8873 143.239 36.438C143.239 36.9047 143.118 37.348 142.875 37.768C142.632 38.1787 142.264 38.5147 141.769 38.776C141.284 39.0373 140.672 39.168 139.935 39.168Z" fill="black"/>
</svg>
